<svg width="266" height="73" viewBox="0 0 266 73" fill="none" xmlns="http://www.w3.org/2000/svg">
<path d="M99.9394 57.9067L89.633 45.2875V57.9067H83.9523V29.5845H89.633V42.2849L99.9394 29.5845H106.797L95.1108 43.6239L107.121 57.9067H99.9394ZM132.079 35.4275V57.9067H126.358V55.0664C125.628 56.0402 124.667 56.8112 123.477 57.3792C122.314 57.9203 121.043 58.1908 119.663 58.1908C117.905 58.1908 116.349 57.8256 114.997 57.0952C113.644 56.3378 112.576 55.2422 111.791 53.8085C111.034 52.3478 110.655 50.6165 110.655 48.6148V35.4275H116.336V47.8032C116.336 49.5886 116.782 50.9682 117.675 51.942C118.567 52.8888 119.785 53.3622 121.327 53.3622C122.895 53.3622 124.126 52.8888 125.019 51.942C125.912 50.9682 126.358 49.5886 126.358 47.8032V35.4275H132.079ZM136.223 46.586C136.223 44.3137 136.67 42.2984 137.562 40.5401C138.482 38.7818 139.727 37.4292 141.295 36.4825C142.864 35.5357 144.609 35.0623 146.53 35.0623C147.991 35.0623 149.384 35.3869 150.709 36.0361C152.035 36.6583 153.09 37.4969 153.874 38.5519V27.8803H159.636V57.9067H153.874V54.5795C153.171 55.6886 152.183 56.5812 150.912 57.2575C149.641 57.9338 148.166 58.2719 146.489 58.2719C144.596 58.2719 142.864 57.785 141.295 56.8112C139.727 55.8373 138.482 54.4713 137.562 52.713C136.67 50.9276 136.223 48.8853 136.223 46.586ZM153.915 46.6671C153.915 45.2875 153.644 44.1108 153.103 43.137C152.562 42.1361 151.832 41.3787 150.912 40.8647C149.992 40.3237 149.005 40.0532 147.95 40.0532C146.895 40.0532 145.921 40.3102 145.028 40.8241C144.136 41.3381 143.405 42.0955 142.837 43.0964C142.296 44.0702 142.026 45.2334 142.026 46.586C142.026 47.9385 142.296 49.1287 142.837 50.1567C143.405 51.1576 144.136 51.9285 145.028 52.4695C145.948 53.0105 146.922 53.281 147.95 53.281C149.005 53.281 149.992 53.0241 150.912 52.5101C151.832 51.9691 152.562 51.2117 153.103 50.2378C153.644 49.2369 153.915 48.0467 153.915 46.6671ZM163.723 46.586C163.723 44.3137 164.17 42.2984 165.062 40.5401C165.982 38.7818 167.213 37.4292 168.755 36.4825C170.324 35.5357 172.069 35.0623 173.989 35.0623C175.666 35.0623 177.127 35.4004 178.371 36.0767C179.643 36.753 180.657 37.6051 181.415 38.633V35.4275H187.136V57.9067H181.415V54.6201C180.684 55.675 179.67 56.5542 178.371 57.2575C177.1 57.9338 175.626 58.2719 173.949 58.2719C172.055 58.2719 170.324 57.785 168.755 56.8112C167.213 55.8373 165.982 54.4713 165.062 52.713C164.17 50.9276 163.723 48.8853 163.723 46.586ZM181.415 46.6671C181.415 45.2875 181.144 44.1108 180.603 43.137C180.062 42.1361 179.332 41.3787 178.412 40.8647C177.492 40.3237 176.505 40.0532 175.45 40.0532C174.395 40.0532 173.421 40.3102 172.528 40.8241C171.636 41.3381 170.905 42.0955 170.337 43.0964C169.796 44.0702 169.526 45.2334 169.526 46.586C169.526 47.9385 169.796 49.1287 170.337 50.1567C170.905 51.1576 171.636 51.9285 172.528 52.4695C173.448 53.0105 174.422 53.281 175.45 53.281C176.505 53.281 177.492 53.0241 178.412 52.5101C179.332 51.9691 180.062 51.2117 180.603 50.2378C181.144 49.2369 181.415 48.0467 181.415 46.6671Z" fill="white"/>
<path d="M36.0678 0C28.9343 -8.50666e-08 21.9609 2.11534 16.0296 6.07852C10.0983 10.0417 5.47539 15.6747 2.7455 22.2652C0.0156126 28.8558 -0.698651 36.1078 0.693031 43.1043C2.08471 50.1007 5.51984 56.5274 10.564 61.5716C15.6082 66.6157 22.0348 70.0509 29.0313 71.4426C36.0278 72.8342 43.2798 72.12 49.8703 69.3901C56.4609 66.6602 62.0939 62.0373 66.0571 56.106C70.0202 50.1747 72.1356 43.2013 72.1356 36.0678L54.1017 36.0678C54.1017 39.6346 53.044 43.1212 51.0624 46.0869C49.0808 49.0526 46.2643 51.364 42.9691 52.7289C39.6738 54.0939 36.0478 54.451 32.5495 53.7552C29.0513 53.0593 25.838 51.3418 23.3159 48.8197C20.7938 46.2976 19.0763 43.0843 18.3804 39.586C17.6846 36.0878 18.0417 32.4618 19.4066 29.1665C20.7716 25.8713 23.083 23.0547 26.0487 21.0732C29.0144 19.0916 32.501 18.0339 36.0678 18.0339V0Z" fill="white"/>
<path d="M36.0678 0C31.3313 -5.64821e-08 26.6412 0.932921 22.2652 2.7455C17.8893 4.55807 13.9132 7.21481 10.564 10.564C7.21481 13.9132 4.55807 17.8893 2.7455 22.2653C0.93292 26.6412 -7.1519e-07 31.3313 0 36.0678H18.0339C18.0339 33.6996 18.5004 31.3545 19.4066 29.1665C20.3129 26.9785 21.6413 24.9905 23.3159 23.3159C24.9905 21.6413 26.9785 20.3129 29.1665 19.4066C31.3545 18.5004 33.6996 18.0339 36.0678 18.0339V0Z" fill="#5CE1E6"/>
<circle cx="36.0678" cy="36.0678" r="11.2712" fill="#5CE1E6"/>
<path d="M47.339 36.0678C47.339 34.5877 47.0475 33.122 46.481 31.7545C45.9146 30.387 45.0844 29.1445 44.0377 28.0979C42.9911 27.0513 41.7486 26.221 40.3811 25.6546C39.0136 25.0882 37.548 24.7966 36.0678 24.7966C34.5876 24.7966 33.122 25.0882 31.7545 25.6546C30.387 26.221 29.1445 27.0513 28.0979 28.0979C27.0512 29.1445 26.221 30.387 25.6546 31.7545C25.0882 33.122 24.7966 34.5877 24.7966 36.0678L36.0678 36.0678H47.339Z" fill="white"/>
</svg>
